<svg viewBox="0 0 901 802" fill="none" xmlns="http://www.w3.org/2000/svg">
	<mask id="mask0" mask-type="alpha" maskUnits="userSpaceOnUse" x="0" y="0" width="901" height="802">
	<rect width="901" height="802" fill="#C4C4C4"/>
	</mask>
	<g mask="url(#mask0)">
	<rect x="37" y="-9" width="875" height="811" fill="#3D3D3D"/>
	<path d="M715.433 296.795C645.862 211.642 663.118 14.7847 680.442 -73H912V829H680.442C692.105 759.705 725.93 602.226 767.919 526.668C820.406 432.22 802.396 403.236 715.433 296.795Z" fill="#00D5CF" fill-opacity="0.7"/>
	<path d="M636.015 229.5C657.154 87.9 422.781 -17.1667 302.952 -52H0V816H754C714.672 755.333 605.658 623.8 484.231 583C362.805 542.2 433.637 484 484.231 460C526.018 442.167 614.876 371.1 636.015 229.5Z" fill="#6577FF"/>
	<path d="M664.588 491.465C624.194 390.692 812.698 365.834 912 366.001V636C846.36 629.81 704.982 592.238 664.588 491.465Z" stroke="#6577FF" stroke-width="5"/>
	<path d="M606 61.5C531.2 68.3 495.5 -18.3333 487 -62.5H746C730.5 -24 680.8 54.7 606 61.5Z" stroke="#6577FF" stroke-width="5"/>
	<ellipse cx="268.333" cy="141.096" rx="97" ry="49" transform="rotate(22.2625 268.333 141.096)" fill="#5467F7"/>
	</g>
</svg>